<svg id="Layer_1" data-name="Layer 1" xmlns="http://www.w3.org/2000/svg" viewBox="0 0 512 512"><defs><style>.cls-1{fill:#dbb4a1;}.cls-2{fill:#f5ceb7;}.cls-3{fill:#fff;}.cls-4{fill:#937569;}.cls-5{fill:#908fe2;}.cls-6{opacity:0.12;}.cls-7{fill:#17292d;}</style></defs><title>doctor-2-flat</title><path class="cls-1" d="M460.8,480a32,32,0,0,1-32,32H83.2a31.9,31.9,0,0,1-32-32A172.87,172.87,0,0,1,166.4,317.06a163.89,163.89,0,0,1,25.6-6.85,170,170,0,0,1,32-3h64a170,170,0,0,1,32,3,163.89,163.89,0,0,1,25.6,6.85A173,173,0,0,1,460.8,480Z"/><polygon class="cls-2" points="192 230.4 192 332.8 256 371.2 320 332.8 320 230.4 192 230.4"/><path class="cls-2" d="M256,294.4h0a128,128,0,0,1-128-128V128A128,128,0,0,1,256,0h0A128,128,0,0,1,384,128v38.4A128,128,0,0,1,256,294.4Z"/><path class="cls-3" d="M179.2,448a25.6,25.6,0,1,1,25.6-25.6A25.63,25.63,0,0,1,179.2,448Z"/><path class="cls-4" d="M192,386.24v-76a163.9,163.9,0,0,0-25.6,6.85v69.18a38.4,38.4,0,1,0,25.6,0Zm-12.8,49A12.8,12.8,0,1,1,192,422.4,12.84,12.84,0,0,1,179.2,435.2Zm204.8,0V512H358.4V435.2a25.6,25.6,0,0,0-51.2,0V512H281.6V435.2A51.29,51.29,0,0,1,320,385.62V310.21a163.9,163.9,0,0,1,25.6,6.85v68.56A51.29,51.29,0,0,1,384,435.2Z"/><path class="cls-5" d="M128.65,115.2H383.35a128,128,0,0,0-254.71,0Z"/><g class="cls-6"><path class="cls-7" d="M256,0a127.82,127.82,0,0,0-32,4.2A127.94,127.94,0,0,1,320,128v38.4a127.94,127.94,0,0,1-96,123.8A127.55,127.55,0,0,0,384,166.4V128A128,128,0,0,0,256,0Z"/></g></svg>